<svg xmlns="http://www.w3.org/2000/svg" xmlns:xlink="http://www.w3.org/1999/xlink" width="28" height="20" viewBox="0 0 28 20">
  <defs>
    <clipPath id="clip-path">
      <rect id="Rectangle_2210" data-name="Rectangle 2210" width="28" height="20" fill="#68c6df"/>
    </clipPath>
  </defs>
  <g id="Group_6537" data-name="Group 6537" transform="translate(0 0)">
    <g id="Group_6536" data-name="Group 6536" transform="translate(0 0)" clip-path="url(#clip-path)">
      <path id="Path_1294" data-name="Path 1294" d="M26.353,13.868H1.647a1.667,1.667,0,0,1,0-3.333H26.353a1.667,1.667,0,0,1,0,3.333" transform="translate(0 -2.202)" fill="#68c6df"/>
      <path id="Path_1295" data-name="Path 1295" d="M26.353,24.4H1.647a1.667,1.667,0,0,1,0-3.333H26.353a1.667,1.667,0,0,1,0,3.333" transform="translate(0 -4.404)" fill="#68c6df"/>
      <path id="Path_1296" data-name="Path 1296" d="M26.353,3.333H1.647A1.657,1.657,0,0,1,0,1.667,1.657,1.657,0,0,1,1.647,0H26.353A1.657,1.657,0,0,1,28,1.667a1.657,1.657,0,0,1-1.647,1.667" transform="translate(0 0)" fill="#68c6df"/>
    </g>
  </g>
</svg>
