<svg xmlns="http://www.w3.org/2000/svg" xmlns:xlink="http://www.w3.org/1999/xlink" width="88.286" height="62" viewBox="0 0 88.286 62">
  <defs>
    <clipPath id="clip-path">
      <rect id="Rectangle_1667" data-name="Rectangle 1667" width="88.286" height="62" fill="none"/>
    </clipPath>
  </defs>
  <g id="esignature-icon" transform="translate(0 0)">
    <g id="Group_5485" data-name="Group 5485" transform="translate(0 0)" clip-path="url(#clip-path)">
      <path id="Path_716" data-name="Path 716" d="M88.181,38.353c-3.848,2.134-8.7,4.142-12.426,1.125-4.129-3.344-2.194-7.945-.78-11.305,1.689-4.015,1.918-5.361.18-6.545-1.99-1.353-7.426,4.335-11.393,8.489-6.62,6.927-13.462,14.089-19.3,9.66a5.706,5.706,0,0,1-2.333-4.095c-.45-4.927,5.126-11.043,11.03-17.519,4.15-4.553,9.316-10.219,9.172-12.791a.8.8,0,0,0-.311-.625c-4.05-3.55-14.7,7.847-22.473,16.168-2.681,2.87-5.213,5.58-7.6,7.9C26.321,34.274,15.794,41.176,8.262,41.176a10.416,10.416,0,0,1-2.121-.207A7.3,7.3,0,0,1,.662,36.408c-3.752-9.162,9.638-18.414,10.211-18.8l2.272,3.336C10,23.089,2.31,29.776,4.4,34.879a3.3,3.3,0,0,0,2.569,2.138c5.214,1.088,15.857-4.976,22.163-11.1,2.317-2.249,4.817-4.925,7.462-7.757C46.961,7.062,57.679-4.419,64.678,1.71a4.838,4.838,0,0,1,1.681,3.437c.24,4.265-4.608,9.581-10.219,15.737-4.581,5.024-10.281,11.276-9.991,14.43a1.635,1.635,0,0,0,.753,1.247c2.965,2.248,9.052-4.116,13.941-9.234,6.052-6.333,11.772-12.319,16.586-9.036,4.73,3.22,2.73,7.975,1.268,11.447-1.511,3.592-2,5.3-.4,6.6,1.9,1.54,5.232.1,9.99-2.714Z" transform="translate(0 0)" fill="#68c6df"/>
      <path id="Path_717" data-name="Path 717" d="M73.087,59.508l-7.2-7.2L62.4,55.8,56.275,40.583l15.4,6.268-3.259,3.259,6.933,6.932Z" transform="translate(3.456 2.492)" fill="#464b50"/>
    </g>
  </g>
</svg>
