<svg xmlns="http://www.w3.org/2000/svg" xmlns:xlink="http://www.w3.org/1999/xlink" width="150.715" height="51" viewBox="0 0 150.715 51">
  <defs>
    <linearGradient id="linear-gradient" x1="0.5" x2="0.5" y2="1" gradientUnits="objectBoundingBox">
      <stop offset="0" stop-color="#00f0ff"/>
      <stop offset="1" stop-color="#09164f"/>
    </linearGradient>
  </defs>
  <g id="esign-logo-desktop" transform="translate(1094 -4285)">
    <g id="Group_6558" data-name="Group 6558" transform="translate(2.187 46.059)">
      <g id="Group_515" data-name="Group 515" transform="translate(-1096.187 4238.941)">
        <path id="Path_676" data-name="Path 676" d="M248.317,754.78v22.6a9.823,9.823,0,0,1-9.814,9.81H215.9a9.823,9.823,0,0,1-9.814-9.81v-22.6a9.823,9.823,0,0,1,9.814-9.81H238.5A9.823,9.823,0,0,1,248.317,754.78Z" transform="translate(-205.755 -744.636)" fill="#fff"/>
        <path id="Path_677" data-name="Path 677" d="M237.331,743.47H214.725a10.153,10.153,0,0,0-10.142,10.141v22.607a10.153,10.153,0,0,0,10.142,10.141h22.607a10.153,10.153,0,0,0,10.142-10.141V753.611A10.153,10.153,0,0,0,237.331,743.47Zm0,42.234H214.725a9.5,9.5,0,0,1-9.486-9.486V753.611a9.5,9.5,0,0,1,9.486-9.485h22.607a9.5,9.5,0,0,1,9.486,9.485v22.607A9.5,9.5,0,0,1,237.331,785.7Z" transform="translate(-204.583 -743.47)" fill="#dcdcdc"/>
        <path id="Path_678" data-name="Path 678" d="M252.51,760.589v22.562a8.177,8.177,0,0,1-8.184,8.169H221.719a8.177,8.177,0,0,1-8.185-8.169V760.589a8.177,8.177,0,0,1,8.185-8.169h22.607A8.177,8.177,0,0,1,252.51,760.589Z" transform="translate(-211.577 -750.425)" fill="url(#linear-gradient)"/>
        <g id="Group_514" data-name="Group 514" transform="translate(4.43 11.333)">
          <path id="Path_679" data-name="Path 679" d="M262.493,812.715c-1.643.929-3.716,1.8-5.305.49-1.763-1.456-.937-3.458-.333-4.921.721-1.748.819-2.334.077-2.849-.85-.589-3.171,1.887-4.865,3.7-2.826,3.015-5.748,6.133-8.241,4.205a2.494,2.494,0,0,1-1-1.783c-.193-2.144,2.188-4.807,4.709-7.626,1.772-1.982,3.978-4.448,3.916-5.568a.349.349,0,0,0-.132-.272c-1.73-1.545-6.276,3.416-9.6,7.038-1.145,1.249-2.225,2.429-3.245,3.438-2.4,2.377-6.9,5.381-10.111,5.381a4.358,4.358,0,0,1-.905-.09,3.134,3.134,0,0,1-2.339-1.985c-1.6-3.989,4.115-8.016,4.359-8.185l.971,1.452c-1.341.934-4.627,3.845-3.735,6.066a1.418,1.418,0,0,0,1.1.931c2.226.473,6.771-2.166,9.463-4.831.989-.979,2.056-2.144,3.186-3.377,4.427-4.831,9-9.828,11.991-7.161a2.12,2.12,0,0,1,.718,1.5c.1,1.857-1.967,4.171-4.363,6.851-1.956,2.187-4.389,4.908-4.266,6.281a.716.716,0,0,0,.321.543c1.266.979,3.865-1.792,5.952-4.019,2.583-2.757,5.026-5.362,7.081-3.933,2.019,1.4,1.165,3.471.542,4.983-.645,1.563-.856,2.308-.171,2.874.812.67,2.234.044,4.265-1.182Z" transform="translate(-224.844 -796.02)" fill="#fff"/>
        </g>
        <path id="Path_680" data-name="Path 680" d="M348.67,888.379l-3.073-3.133-1.488,1.517-2.616-6.622,6.576,2.728-1.391,1.418,2.96,3.018Z" transform="translate(-311.561 -850.515)" fill="#fff"/>
      </g>
    </g>
    <g id="Group_6557" data-name="Group 6557">
      <path id="Path_1303" data-name="Path 1303" d="M722.587,158.122a1.589,1.589,0,0,0-.844-.844,1.593,1.593,0,0,0-1.236,0,1.589,1.589,0,0,0-.844.844,1.593,1.593,0,0,0,0,1.237,1.591,1.591,0,0,0,.844.844,1.593,1.593,0,0,0,1.236,0,1.591,1.591,0,0,0,.844-.844,1.594,1.594,0,0,0,0-1.237m-.226,1.151a1.37,1.37,0,0,1-.287.432,1.331,1.331,0,0,1-.428.29,1.347,1.347,0,0,1-1.044,0,1.334,1.334,0,0,1-.427-.29,1.369,1.369,0,0,1-.287-.432,1.392,1.392,0,0,1,0-1.061,1.355,1.355,0,0,1,.715-.724,1.321,1.321,0,0,1,1.044,0,1.353,1.353,0,0,1,.715.724,1.391,1.391,0,0,1,0,1.061" transform="translate(-1665.997 4160.366)" fill="#fff"/>
      <path id="Path_1304" data-name="Path 1304" d="M725.228,161.3a.564.564,0,0,0,.09-.311.491.491,0,0,0-.215-.441.988.988,0,0,0-.557-.143h-.711v1.842h.482V161.6h.167l.421.649h.553l-.518-.728a.581.581,0,0,0,.287-.219m-.484-.133a.352.352,0,0,1-.211.055h-.215v-.474h.215a.342.342,0,0,1,.211.057.218.218,0,0,1,.074.184.206.206,0,0,1-.074.178" transform="translate(-1669.415 4157.782)" fill="#fff"/>
      <path id="Path_1305" data-name="Path 1305" d="M253.982,54.965h12.594V51.049H253.982V43.868h13.608V39.719H249.609V67.137h18.229V62.991H253.982Z" transform="translate(-1292.427 4253.721)" fill="#fff"/>
      <path id="Path_1306" data-name="Path 1306" d="M356.489,100.606q0-.53-2.431-.532l-6.54.046a1.084,1.084,0,0,0-.486.132c-.65.293-.971.646-.971,1.06q0,.4.793.4h.221q9.413-.22,9.413-1.1" transform="translate(-1369.102 4205.741)" fill="#fff"/>
      <path id="Path_1307" data-name="Path 1307" d="M524.007,79.727c.207,0,.5-.293.885-.882a2.912,2.912,0,0,0,.575-1.281l.353-1.414a.158.158,0,0,0-.178-.178c-.118,0-.411.207-.882.621l-.753.572a9.393,9.393,0,0,0-1.9,1.635c0,.621.632.928,1.9.928" transform="translate(-1509.051 4224.902)" fill="#fff"/>
      <path id="Path_1308" data-name="Path 1308" d="M397.655,53.56a12.121,12.121,0,0,0-3.227-2.187q-1.7-.771-4.462-1.813t-3.689-1.48c-1.149-.558-1.724-1.15-1.724-1.767q0-1.147,2.827-2.7a21.559,21.559,0,0,1,9.235-2.517q3.759,0,3.755,1.9,0,.884-1.457,2.253a3.438,3.438,0,0,0-.485.531c0,.354.27.382.816.086a3.934,3.934,0,0,0,1.48-1.635,4.417,4.417,0,0,0,.8-2.253q0-2.431-4.859-2.431a25.019,25.019,0,0,0-8.528,1.9,12.627,12.627,0,0,0-4,2.362,4.146,4.146,0,0,0-1.658,3.005,3.213,3.213,0,0,0,1.394,2.606,11.215,11.215,0,0,0,3.379,1.747,81.967,81.967,0,0,1,8.043,3.049q2.474,1.151,2.474,3.181a3.237,3.237,0,0,1-.707,1.724q-1.767,2.784-8.836,5.126a21.455,21.455,0,0,1-6.629,1.058q-3.358,0-4.551-.971a2.809,2.809,0,0,1-1.193-2.21,5.533,5.533,0,0,1,2.21-3.977,12.486,12.486,0,0,1,3.623-2.362,9.151,9.151,0,0,1,3.181-.842c.825-.014,1.264-.124,1.324-.33s-.221-.311-.839-.311a12.916,12.916,0,0,0-7.422,2.431q-4.288,2.741-4.287,6.672t6.982,3.933a23.7,23.7,0,0,0,8.482-1.966,24.62,24.62,0,0,0,8.043-4.928q2.03-2.03,2.032-3.755a4.221,4.221,0,0,0-1.523-3.138" transform="translate(-1391.025 4253.854)" fill="#fff"/>
      <path id="Path_1309" data-name="Path 1309" d="M545.121,108.98a.442.442,0,0,0,.089-.244c0-.072-.08-.147-.244-.221a.322.322,0,0,0-.42.112,21.294,21.294,0,0,1-3.29,3.6,20.266,20.266,0,0,1-3.2,2.474q-1.151.642-1.813-.066a2.561,2.561,0,0,1-.353-1.612,9.154,9.154,0,0,1,.839-3.247q.487-1.194,1.5-3.095a6.986,6.986,0,0,0,1.017-2.983q0-1.081-1.017-1.083a5.231,5.231,0,0,0-2.738,1.192,42.319,42.319,0,0,0-4.109,3.868q-2.431,2.543-4.023,4.485,2.3-6.1,2.784-7.137a4.434,4.434,0,0,0,.485-1.348c0-.293-.207-.477-.618-.552a4.712,4.712,0,0,0-1.017-.089.829.829,0,0,0-.641.354,2.224,2.224,0,0,0-.33.6,4.6,4.6,0,0,0-.155.641,5.21,5.21,0,0,1-.264.905c-.129.345-.485,1.348-1.063,3a42.944,42.944,0,0,1-4.238,4.23,22.684,22.684,0,0,1-3.468,2.672q.75-1.59,2.276-4.75t2.1-4.442c.089-.175-.1-.382-.575-.618q-1.81-.884-2.385-.043a46.608,46.608,0,0,1-7.293,7.2q-2.56,2.034-3.8,2.031-.884,0-.885-1.545a6.276,6.276,0,0,1,1.172-2.762,15.047,15.047,0,0,1,2.85-3.356,18.4,18.4,0,0,1,3.779-2.563,8.363,8.363,0,0,1,3.755-1.083c1.1,0,1.819.279,2.141.839.236.089.354.014.354-.221,0-.411-.293-.825-.882-1.236a3.448,3.448,0,0,0-2.031-.62,9.8,9.8,0,0,0-2.388.31,14.219,14.219,0,0,0-3.359,1.546,24.1,24.1,0,0,0-4.063,3.005,16.389,16.389,0,0,0-1.483,1.483.12.12,0,0,0-.02.02.129.129,0,0,0-.023.032,10.5,10.5,0,0,0-.716.914,26.092,26.092,0,0,1-2.6,2.678,18.929,18.929,0,0,1-3.2,2.474q-1.151.616-1.767-.089a1.471,1.471,0,0,1-.353-1.017,9.7,9.7,0,0,1,.043-1.014q.134-1.371,2.652-6.408c.146-.264.293-.546.442-.839.029-.089.072-.207.132-.354a6.412,6.412,0,0,1,.288-.6,1.09,1.09,0,0,0,.109-.773c-.146-.471-.589-.707-1.325-.707h-.31q-.664.134-1.546,2.606a.722.722,0,0,0-.089.575q-1.237,1.858-3.4,4.551a.649.649,0,0,0-.175.376.55.55,0,0,0,.043.242c.147.3.353.3.618,0a13.953,13.953,0,0,0,1.724-2.21,13.012,13.012,0,0,0-1.414,4.686,2.712,2.712,0,0,0,.089.75,2.273,2.273,0,0,0,2.342,1.678,5.715,5.715,0,0,0,1.856-.4,14.227,14.227,0,0,0,4.727-3.755c.043-.049.083-.092.127-.138a3.574,3.574,0,0,0-.037.491,2.708,2.708,0,0,0,.575,1.655,3.978,3.978,0,0,0,1.391,1.2,3.373,3.373,0,0,0,1.526.42q2.426,0,6.4-4.419,1.06-1.15,3.537-4.155a85.515,85.515,0,0,1-4.419,10.3q-7.469,4.952-9.787,7.646t-2.322,4.485q0,1.789,2.256,2.362a3.727,3.727,0,0,0,.882.132q3.224,0,6.54-4.9,1.28-1.991,5.037-9.723a29.386,29.386,0,0,0,4.33-3.445q2.254-2.008,3.543-3.359c-.351.994-.687,1.942-1,2.828q-.771,2.168-.862,2.408a1.257,1.257,0,0,0-.089.376c0,.089.135.132.4.132a6.993,6.993,0,0,0,1.988-.793,35.529,35.529,0,0,0,3.026-3.778,41.4,41.4,0,0,1,4.043-4.839q1.991-1.724,2.7-1.724c.236,0,.353.112.353.331a4.049,4.049,0,0,1-.595,1.394,29.717,29.717,0,0,0-1.394,2.959,11.538,11.538,0,0,0-.661,2.1,9.762,9.762,0,0,0-.178,1.877,2.226,2.226,0,0,0,.618,1.612,3,3,0,0,0,2.123.687,5.43,5.43,0,0,0,3.135-1.127,22.1,22.1,0,0,0,3.316-2.982,17.229,17.229,0,0,0,2.385-3.049m-31.305,11.488c-.368.764-.618,1.273-.75,1.523s-.382.722-.753,1.417-.655,1.2-.859,1.523-.494.773-.862,1.348-.7,1.046-.994,1.414-.641.768-1.04,1.193a12.8,12.8,0,0,1-1.434,1.3,2.491,2.491,0,0,1-1.282.664,1.489,1.489,0,0,1-.842-.267.981.981,0,0,1-.4-.882q0-2.035,2.3-4.353a73.493,73.493,0,0,1,7.6-6.3q-.133.263-.687,1.414" transform="translate(-1488.498 4204.002)" fill="#fff"/>
    </g>
  </g>
</svg>
