<svg xmlns="http://www.w3.org/2000/svg" xmlns:xlink="http://www.w3.org/1999/xlink" width="68.708" height="62" viewBox="0 0 68.708 62">
  <defs>
    <clipPath id="clip-path">
      <rect id="Rectangle_1668" data-name="Rectangle 1668" width="68.708" height="62" fill="none"/>
    </clipPath>
  </defs>
  <g id="oauth-icon" transform="translate(0 0)">
    <g id="Group_5487" data-name="Group 5487" transform="translate(0 0)" clip-path="url(#clip-path)">
      <path id="Path_718" data-name="Path 718" d="M73.168,61.986h-.233L56.267,55.36a14.367,14.367,0,0,1-7.594-11.629V18.8a11.877,11.877,0,0,1,3.884-9.261,11.241,11.241,0,0,1,3.881-2.266l16.5-6.55h.233c6.46,0,8.167,6.312,8.167,9.65V52.335c0,9.54-8.085,9.65-8.167,9.65m-15.813-8.81,16.024,6.361c1.131-.077,5.517-.792,5.517-7.2V10.378c0-.288-.094-7.025-5.5-7.206L57.174,9.6c-.269.078-6.061,1.857-6.061,9.2V43.693a11.915,11.915,0,0,0,6.243,9.482" transform="translate(-12.834 -0.192)" fill="#68c6df"/>
      <path id="Path_719" data-name="Path 719" d="M38.4,62c-9.1,0-9.21-9.111-9.21-9.2v-6.64h2.858V52.8a8.353,8.353,0,0,0,.85,3.314c1.038,2.011,2.889,3.031,5.5,3.031H67.2a8.364,8.364,0,0,0,3.314-.851c2.012-1.032,3.031-2.88,3.031-5.494V9.2A8.394,8.394,0,0,0,72.7,5.889c-1.032-2.012-2.88-3.031-5.494-3.031H38.4a8.409,8.409,0,0,0-3.321.851A5.672,5.672,0,0,0,32.052,9.2v5.343H29.194V9.2c0-4.741,2.543-7.012,4.677-8.083A11.23,11.23,0,0,1,38.4,0H67.2c4.741,0,7.012,2.543,8.083,4.676A11.186,11.186,0,0,1,76.4,9.2V52.8c0,9.1-9.111,9.2-9.2,9.2Z" transform="translate(-7.698 0)" fill="#464b50"/>
      <path id="Path_720" data-name="Path 720" d="M75.173,4.845c-1.044-2.081-3.26-4.562-7.9-4.562h-28.8a11.008,11.008,0,0,0-4.439,1.1c-2.081,1.044-4.562,3.26-4.562,7.9v5.134h2.44V9.277c0-2.691,1.057-4.6,3.145-5.68a8.6,8.6,0,0,1,3.416-.874h28.8c2.7,0,4.609,1.057,5.68,3.145a8.556,8.556,0,0,1,.874,3.409V52.871c0,2.7-1.057,4.609-3.145,5.68a8.531,8.531,0,0,1-3.409.874h-28.8c-2.7,0-4.609-1.057-5.687-3.145a8.545,8.545,0,0,1-.874-3.409V46.44h-2.44v6.431c0,.088.1,8.994,9,8.994h28.8c.088,0,8.994-.1,8.994-8.994V9.277a10.974,10.974,0,0,0-1.1-4.433" transform="translate(-7.773 -0.075)" fill="#464b50"/>
      <path id="Path_721" data-name="Path 721" d="M20.061,48.847,30.235,38.673c.018-.018.035-.037.052-.055a1.713,1.713,0,0,0,0-2.529l-.052-.054L20.061,25.86a1.713,1.713,0,1,0-2.423,2.423l7.356,7.357H1.713a1.713,1.713,0,0,0,0,3.427h23.28l-7.356,7.357a1.713,1.713,0,1,0,2.423,2.423" transform="translate(0 -6.686)" fill="#68c6df"/>
    </g>
  </g>
</svg>
